<svg width="22" height="19" viewBox="0 0 22 19" fill="none" xmlns="http://www.w3.org/2000/svg">
<path d="M21.3331 0.577953L21.333 0.577909C21.1978 0.487179 21.0182 0.488713 20.8846 0.581531L20.8846 0.581569C20.189 1.06492 19.4357 1.45332 18.6391 1.73986L18.3592 1.84052L18.1372 1.64267C17.3936 0.98007 16.4521 0.582796 15.4315 0.512837C14.227 0.430303 13.0662 0.814025 12.1576 1.59272L12.1575 1.59274C11.1682 2.4405 10.6065 3.66391 10.6115 4.95105L10.6136 5.49904L10.0677 5.45104C6.19626 5.11062 3.76811 2.69158 2.11398 0.654688M21.3331 0.577953L2.11398 0.654688M21.3331 0.577953C21.4669 0.667646 21.5261 0.825706 21.4895 0.973531L21.4895 0.973614C21.1947 2.1658 20.6041 3.26272 19.771 4.17016L19.6203 4.33424L19.6415 4.55598C19.6544 4.69055 19.6612 4.8254 19.6616 4.95959C19.6615 7.44173 19.1089 9.66411 18.0317 11.579C17.0314 13.357 15.5692 14.8381 13.8032 15.8618C11.9549 16.9331 9.79585 17.5018 7.55508 17.5018L7.50174 17.5017L7.5015 17.5017C5.18859 17.4924 2.83492 16.8719 0.697449 15.702C0.539347 15.6155 0.467944 15.4382 0.514182 15.2758L0.514196 15.2758M21.3331 0.577953L0.514196 15.2758M2.11398 0.654688C2.02864 0.549625 1.8904 0.494636 1.75025 0.515135L1.75008 0.515161C1.6101 0.535583 1.49598 0.627012 1.44632 0.749349L1.44628 0.749429C1.41609 0.823764 0.496809 3.12502 0.731328 5.89755C0.925468 8.19268 1.95386 11.1864 5.63057 13.193L6.5154 13.6759L5.59553 14.0882C4.13257 14.7439 2.51577 15.0633 0.904875 15.0001M2.11398 0.654688L0.904875 15.0001M0.904875 15.0001C0.71913 14.9929 0.560871 15.1118 0.514196 15.2758M0.904875 15.0001L0.514196 15.2758M18.9239 3.94505L18.9239 3.94509C18.8327 4.03367 18.7942 4.15885 18.8174 4.27885C18.8174 4.27887 18.8174 4.2789 18.8174 4.27892L18.3266 4.37409L18.9239 3.94505ZM18.9239 3.94505C19.1736 3.70249 19.4025 3.44214 19.6092 3.16658L20.6346 1.79993L19.0342 2.39817C18.8059 2.48353 18.5741 2.56118 18.3392 2.63086L18.3389 2.63093C18.1895 2.67535 18.0289 2.62827 17.9295 2.5156L17.9294 2.51558C17.2754 1.77496 16.367 1.32989 15.3765 1.26201L18.9239 3.94505ZM7.47009 13.2165L7.47008 13.2165C5.68323 12.5124 4.26781 11.5474 3.25925 10.3144C2.24795 9.07809 1.66586 7.59661 1.51136 5.8966L1.51136 5.89659C1.39662 4.63371 1.54353 3.46501 1.7246 2.5957L1.92011 1.65713L2.57786 2.35462C3.27465 3.0935 4.13529 3.88156 5.15447 4.53808C6.91022 5.66904 8.87381 6.2425 11.0001 6.2425C11.2219 6.2425 11.3888 6.06736 11.3888 5.86701V4.96143V4.96142V4.9614V4.96139V4.96138V4.96137V4.96136V4.96135V4.96134V4.96133V4.96132V4.9613V4.96129V4.96128V4.96127V4.96126V4.96125V4.96124V4.96123V4.96122V4.9612V4.96119V4.96118V4.96117V4.96116V4.96115V4.96114V4.96113V4.96111V4.9611V4.96109V4.96108V4.96107V4.96106V4.96105V4.96104V4.96102V4.96101V4.961V4.96099V4.96098V4.96097V4.96096V4.96095V4.96094V4.96092V4.96091V4.9609V4.96089V4.96088V4.96087V4.96086V4.96085V4.96083V4.96082V4.96081V4.9608V4.96079V4.96078V4.96077V4.96076V4.96074V4.96073V4.96072V4.96071V4.9607V4.96069V4.96068V4.96067V4.96065V4.96064V4.96063V4.96062V4.96061V4.9606V4.96059V4.96058V4.96057V4.96055V4.96054V4.96053V4.96052V4.96051V4.9605V4.96049V4.96047V4.96046V4.96045V4.96044V4.96043V4.96042V4.96041V4.9604V4.96039V4.96037V4.96036V4.96035V4.96034V4.96033V4.96032V4.96031V4.9603V4.96028V4.96027V4.96026V4.96025V4.96024V4.96023V4.96022V4.96021V4.96019V4.96018V4.96017V4.96016V4.96015V4.96014V4.96013V4.96011V4.9601V4.96009V4.96008V4.96007V4.96006V4.96005V4.96004V4.96002V4.96001V4.96V4.95999V4.95998V4.95997V4.95996V4.95995V4.95993V4.95992V4.95991V4.9599V4.95989V4.95988V4.95987V4.95986V4.95984V4.95983V4.95982V4.95981V4.9598V4.95979V4.95978V4.95977V4.95975V4.95974V4.95973V4.95972V4.95971V4.9597V4.95969V4.95968V4.95966V4.95965V4.95964V4.95963V4.95962V4.95961V4.9596V4.95958V4.95957V4.95956V4.95955V4.95954V4.95953V4.95952V4.95951V4.95949V4.95948V4.95947V4.95946V4.95945V4.95944V4.95943V4.95942V4.9594V4.95939V4.95938V4.95937V4.95936V4.95935V4.95934V4.95932V4.95931V4.9593V4.95929V4.95928V4.95927V4.95926V4.95925V4.95923V4.95922V4.95921V4.9592V4.95919V4.95918V4.95917V4.95916V4.95914V4.95913V4.95912V4.95911V4.9591V4.95909V4.95908V4.95906V4.95905V4.95904V4.95903V4.95902V4.95901V4.959V4.95899V4.95897V4.95896V4.95895V4.95894V4.95893V4.95892V4.95891V4.95889V4.95888V4.95887V4.95886V4.95885V4.95884V4.95883V4.95882V4.9588V4.95879V4.95878V4.95877V4.95876V4.95875V4.95874V4.95872V4.95871V4.9587V4.95869V4.95868V4.95867V4.95866V4.95865V4.95863V4.95862V4.95861V4.9586V4.95859V4.95858V4.95857V4.95855V4.95854V4.95853V4.95852V4.95851V4.9585V4.95849V4.95848V4.95846V4.95845V4.95844V4.95843V4.95842V4.95841V4.9584V4.95838V4.95837V4.95836V4.95835V4.95834V4.95833V4.95832V4.9583V4.95829V4.95828V4.95827V4.95826V4.95825V4.95824V4.95823V4.95821V4.9582V4.95819V4.95818V4.95817V4.95816V4.95815V4.95813V4.95812V4.95811V4.9581V4.95809V4.95808V4.95807V4.95805V4.95804V4.95803V4.95802V4.95801V4.958V4.95799V4.95797V4.95796V4.95795V4.95794V4.95793V4.95792V4.95791V4.9579V4.95788V4.95787V4.95786V4.95785V4.95784V4.95783V4.95782V4.9578V4.95779V4.95778V4.95777V4.95776V4.95775V4.95774V4.95772V4.95771V4.9577V4.95769V4.95768V4.95767V4.95766V4.95764V4.95763V4.95762V4.95761V4.9576V4.95759V4.95758V4.95757V4.95755V4.95754V4.95753V4.95752V4.95751V4.9575V4.95749V4.95747V4.95746V4.95745V4.95744V4.95743V4.95742V4.95741V4.95739V4.95738V4.95737V4.95736V4.95735V4.95734V4.95733V4.95731V4.9573V4.95729V4.95728V4.95727V4.95726V4.95725V4.95724V4.95722V4.95721V4.9572V4.95719V4.95718V4.95717V4.95716V4.95714V4.95713V4.95712V4.95711V4.9571V4.95709V4.95708V4.95706V4.95705V4.95704V4.95703V4.95702V4.95701V4.957V4.95698V4.95697V4.95696V4.95695V4.95694V4.95693V4.95692V4.9569V4.95689V4.95688V4.95687V4.95686V4.95685V4.95684V4.95682V4.95681V4.9568V4.95679V4.95678V4.95677V4.95676V4.95675V4.95673V4.95672V4.95671V4.9567V4.95669V4.95668V4.95667V4.95665V4.95664V4.95663V4.95662V4.95661V4.9566V4.95659V4.95657V4.95656V4.95655V4.95654V4.95653V4.95652V4.95651V4.95649V4.95648V4.95647V4.95646V4.95645V4.95644V4.95643V4.95641V4.9564V4.95639V4.95638V4.95637V4.95636V4.95635V4.95633V4.95632V4.95631V4.9563V4.95629V4.95628V4.95627V4.95625V4.95624V4.95623V4.95622V4.95621V4.9562V4.95619V4.95617V4.95616V4.95615V4.95614V4.95613V4.95612V4.95611V4.9561V4.95608V4.95607V4.95606V4.95605V4.95604V4.95603V4.95602V4.956V4.95599V4.95598V4.95597V4.95596V4.95595V4.95594V4.95592V4.95591V4.9559V4.95589V4.95588V4.95587V4.95586V4.95584V4.95583V4.95582V4.95581V4.9558V4.95579V4.95578V4.95576V4.95575V4.95574V4.95573V4.95572V4.95571V4.9557V4.95568V4.95567V4.95566V4.95565V4.95564V4.95563L7.47009 13.2165ZM7.47009 13.2165C7.6054 13.2698 7.69505 13.39 7.70988 13.5246L7.47009 13.2165Z" fill="white" stroke="white"/>
</svg>
