<svg width="22" height="23" viewBox="0 0 22 23" fill="none" xmlns="http://www.w3.org/2000/svg">
<path d="M5.94434 0.5H16.0557C19.0571 0.5 21.5 2.94315 21.5 5.94534V16.0584C21.5 19.0605 19.0571 21.5037 16.0557 21.5037H5.94434C2.94286 21.5037 0.5 19.0605 0.5 16.0584V5.94534C0.5 2.94315 2.94286 0.5 5.94434 0.5ZM16.0557 20.726C18.6296 20.726 20.7226 18.6325 20.7226 16.0584V5.94534C20.7226 3.37118 18.6295 1.27766 16.0557 1.27766H5.94434C3.3704 1.27766 1.27736 3.37123 1.27736 5.94534V16.0584C1.27736 18.6325 3.37045 20.726 5.94434 20.726H16.0557Z" fill="white" stroke="white"/>
<path d="M8.1074 8.78048L8.10741 8.78047C8.68862 7.99679 9.54244 7.48499 10.5075 7.34185L10.5075 7.34185C10.6853 7.31547 10.8645 7.30227 11.0437 7.30227C11.2229 7.30227 11.4021 7.31546 11.58 7.34189L8.1074 8.78048ZM8.1074 8.78048C7.52625 9.56416 7.28437 10.5299 7.42747 11.495L8.1074 8.78048ZM15.429 10.3082L15.429 10.3082C15.6029 11.4807 15.3104 12.6481 14.6044 13.6001L14.6044 13.6002C13.8984 14.5522 12.8663 15.1708 11.694 15.3447L11.6939 15.3447C11.4729 15.3775 11.2522 15.3937 11.0333 15.3937C10.0905 15.3937 9.17611 15.0937 8.40275 14.52C7.45089 13.8139 6.83233 12.7816 6.65846 11.6091L6.16387 11.6824L6.65846 11.6091C6.4846 10.4366 6.77707 9.26913 7.48309 8.31709C8.18909 7.36506 9.22115 6.74642 10.3935 6.57254C10.825 6.50854 11.2625 6.50854 11.694 6.57254L11.694 6.57254C12.6426 6.71318 13.5003 7.14503 14.1785 7.82325C14.8566 8.50149 15.2884 9.35939 15.429 10.3082ZM8.8658 13.8954C9.64928 14.4766 10.6149 14.7188 11.58 14.5754L7.42748 11.495C7.57054 12.4601 8.08223 13.3141 8.8658 13.8954ZM11.5801 14.5754C13.5746 14.2796 14.9557 12.4169 14.66 10.4224C14.4223 8.81939 13.1829 7.57966 11.5801 7.34191L11.5801 14.5754Z" fill="white" stroke="white"/>
<path d="M16.2863 5.1644C16.2864 5.16438 16.2864 5.16436 16.2864 5.16435C16.3581 5.09267 16.4599 5.05054 16.5612 5.05054C16.6624 5.05054 16.7643 5.09268 16.8361 5.1644H16.2863ZM16.2863 5.1644C16.2145 5.23624 16.1725 5.33777 16.1725 5.43926C16.1725 5.54072 16.2145 5.64224 16.2863 5.71408M16.2863 5.1644L16.2863 5.71408M16.2863 5.71408C16.2863 5.71411 16.2864 5.71414 16.2864 5.71417M16.2863 5.71408L16.2864 5.71417M16.2864 5.71417C16.3581 5.78586 16.46 5.82798 16.5612 5.82798C16.6625 5.82798 16.7643 5.78585 16.836 5.71417M16.2864 5.71417H16.836M16.836 5.71417C16.836 5.71416 16.8361 5.71414 16.8361 5.71412L16.836 5.71417Z" fill="white" stroke="white"/>
</svg>
